<svg xmlns="http://www.w3.org/2000/svg" width="86.703" height="66.591" viewBox="0 0 86.703 66.591">
  <g id="Layer_2" data-name="Layer 2" transform="translate(-0.297)">
    <g id="Layer_1" data-name="Layer 1">
      <path id="Path_1" data-name="Path 1" d="M58.46,58.48a29.25,29.25,0,0,1-29.9,0H21.75a33.23,33.23,0,0,0,43.51,0ZM43.51,0A33.33,33.33,0,0,0,13.39,19.12c.83.36,1.64.68,3.66,1.62a29.28,29.28,0,0,1,53,.08c1.65-.79,2.91-1.3,3.66-1.63A33.32,33.32,0,0,0,43.51,0Z" fill="#4d00d2"/>
      <path id="Path_2" data-name="Path 2" d="M84.53,40A118.34,118.34,0,0,0,45.34,53l-.52.28-.42.24c-.16.09-.33.17-.48.27l-.2.11-.1.06h0a.51.51,0,0,1,.09-.13,2.15,2.15,0,0,1,.18-.24C46,50.76,59.27,33.92,80.94,30.87A30,30,0,0,1,84.53,40Z" fill="#4d00d2"/>
      <path id="Path_3" data-name="Path 3" d="M85.15,45.94a27.82,27.82,0,0,1-.31,4.21C78.41,49.8,61,49.42,43.61,54l.1-.06.2-.11.29-.17c.29-.16.66-.38,1.13-.62l.61-.32c5.83-3,21.83-10.31,39.1-9.07h0A21.047,21.047,0,0,1,85.15,45.94Z" fill="#4d00d2"/>
      <path id="Path_4" data-name="Path 4" d="M79.26,28.33c-9.09,3.56-26.42,11.8-35.55,25.47a.55.55,0,0,0-.09.14v-2.3s5.06-17.5,31-28.53a35.4,35.4,0,0,1,4.64,5.22Z" fill="#4d00d2"/>
      <path id="Path_5" data-name="Path 5" d="M2.68,40a118.38,118.38,0,0,1,39.2,13l.52.28.42.24c.16.09.32.17.48.27l.19.11.11.06h0a.38.38,0,0,0-.1-.13,2.07,2.07,0,0,0-.17-.24c-2.07-2.8-15.39-19.64-37-22.69A30.27,30.27,0,0,0,2.68,40Z" fill="#4d00d2"/>
      <path id="Path_6" data-name="Path 6" d="M2.06,45.94a27.821,27.821,0,0,0,.31,4.21c6.44-.35,23.84-.73,41.24,3.8l-.11-.06-.19-.11L43,53.6c-.29-.16-.67-.38-1.13-.62l-.61-.32c-5.84-3-21.83-10.31-39.11-9.07h0C2.09,44.37,2.06,45.15,2.06,45.94Z" fill="#4d00d2"/>
      <path id="Path_7" data-name="Path 7" d="M8,28.33c9,3.56,26.38,11.8,35.5,25.47a.41.41,0,0,1,.1.14v-2.3s-5.07-17.5-31-28.53A34.83,34.83,0,0,0,8,28.33Z" fill="#4d00d2"/>
      <path id="Path_8" data-name="Path 8" d="M87,53.53a1,1,0,0,1-1,.95H47.7a4.27,4.27,0,0,1-8.39,0H1a1,1,0,0,1,0-1.91H86.06A1,1,0,0,1,87,53.53Z" fill="#4d00d2"/>
      <path id="Path_9" data-name="Path 9" d="M84.53,40A118.34,118.34,0,0,0,45.34,53a15.805,15.805,0,0,0-1.72,1h0a4.329,4.329,0,0,1,.27-.37C46,50.76,59.27,33.92,80.94,30.87A30,30,0,0,1,84.53,40Z" fill="#4d00d2"/>
      <path id="Path_10" data-name="Path 10" d="M85.15,45.94a27.82,27.82,0,0,1-.31,4.21C78.41,49.8,61,49.42,43.61,54c2.06-1.18,1.51-.84,2.33-1.28,5.83-3,21.83-10.31,39.1-9.07h0A21.047,21.047,0,0,1,85.15,45.94Z" fill="#4d00d2"/>
      <path id="Path_11" data-name="Path 11" d="M79.26,28.33c-9.09,3.56-26.42,11.8-35.55,25.47a.55.55,0,0,0-.09.14v-2.3s5.06-17.5,31-28.53a35.4,35.4,0,0,1,4.64,5.22Z" fill="#4d00d2"/>
      <path id="Path_12" data-name="Path 12" d="M2.68,40a118.38,118.38,0,0,1,39.2,13c1.9,1,1.62.92,1.72,1h0s-.24-.33-.27-.37c-2.07-2.8-15.39-19.64-37-22.69A30.27,30.27,0,0,0,2.68,40Z" fill="#4d00d2"/>
      <path id="Path_13" data-name="Path 13" d="M2.06,45.94a27.821,27.821,0,0,0,.31,4.21c6.44-.35,23.84-.73,41.24,3.8l-2.33-1.28c-5.84-3-21.83-10.31-39.11-9.07h0A22.64,22.64,0,0,0,2.06,45.94Z" fill="#4d00d2"/>
      <path id="Path_14" data-name="Path 14" d="M8,28.33c9,3.56,26.38,11.8,35.5,25.47a.41.41,0,0,1,.1.14v-2.3s-5.07-17.5-31-28.53A34.83,34.83,0,0,0,8,28.33Z" fill="#4d00d2"/>
      <path id="Path_15" data-name="Path 15" d="M87,53.53a1,1,0,0,1-1,.95H47.7a4.27,4.27,0,0,1-8.39,0H1a1,1,0,0,1,0-1.91H86.06A1,1,0,0,1,87,53.53Z" fill="#4d00d2"/>
    </g>
  </g>
</svg>
